<!-- sample rectangle -->
<svg xmlns="http://www.w3.org/2000/svg" width="179" height="179" fill="none">
  <mask id="a" width="179" height="179" x="0" y="0" maskUnits="userSpaceOnUse" style="mask-type:alpha">
    <path fill="#DFDFF2" d="M0 0h179v179H0z"/>
  </mask>
  <g fill="#A6FF00" mask="url(#a)">
    <path d="m224.336-363.602 21.87 18.107-554.68 669.931-21.87-18.107zM268.07-327.389l21.87 18.107-554.68 669.931-21.87-18.107zM311.812-291.176l21.87 18.107-554.68 669.931-21.87-18.107zM355.555-254.96l21.87 18.107-554.68 669.931-21.87-18.107zM399.289-218.744l21.87 18.107-554.68 669.931-21.87-18.107zM443.031-182.531l21.87 18.107-554.68 669.931-21.87-18.107zM486.766-146.315l21.87 18.107-554.68 669.931-21.87-18.107z"/>
  </g>
</svg>